<?xml version="1.0" encoding="utf-8"?>
<!-- Generator: Adobe Illustrator 18.0.0, SVG Export Plug-In . SVG Version: 6.00 Build 0)  -->
<!DOCTYPE svg PUBLIC "-//W3C//DTD SVG 1.1//EN" "http://www.w3.org/Graphics/SVG/1.1/DTD/svg11.dtd">
<svg version="1.1" id="Lag_1" xmlns="http://www.w3.org/2000/svg" xmlns:xlink="http://www.w3.org/1999/xlink" x="0px" y="0px"
	 viewBox="0 0 411.5 191" enable-background="new 0 0 411.5 191" xml:space="preserve">
<g opacity="0.52">
	<path fill="#80A1B7" d="M387.2,78c-6.8,6.8-16.1,10.2-26.4,11.4c-5.7,0.6-11.7,0.3-17.5,0.4c-34.7,0.2-69.5,0.4-104.2,0.5
		c-28.2,0.1-56.3,0.2-84.5,0.3c-21.2-5.2-41.1-12.9-60.3-21.9c0-0.5-1.8-0.8-1.5-1.6c0.2-0.6,1-0.4,1.7-0.4
		c5.4-0.1,10.7-0.2,16.1-0.3c18.2-0.3,36.5-0.6,54.7-0.9c7.3-0.1,14.5-0.3,21.8-0.3c1.8,0,2.3-0.3,1.5-1.8
		c-8.6-16.3-17.2-32.7-25.8-49.1c-1.1-2.1-0.7-2.6,6.8-4.2c4.5-3.6,5.7-4.3,8-2.8c20.1,13.4,40.2,26.7,60.4,40.1
		c8.1,5.4,16.2,10.7,24.3,16.1c1.2,0.8,2.3,1.1,3.7,1c18.9-0.2,37.8-0.3,56.6-0.4c11.9-0.1,23.8-0.3,35.8-0.2
		c8.4,0.1,16.2,2.4,23.3,6.3C385,71.9,387.1,74.4,387.2,78z"/>
	<path fill="#80A1B7" d="M77.8,36.5c3-0.7,5.6-2.1,8.4-3.1c1.3-0.5,2.1-0.4,3.2,0.4c11.7,9,23.4,17.9,35.1,26.8
		c0.2,0.2,0.4,0.4,0.9,0.9c-4.1,0.1-7.7,0.2-11.4,0.3c-6.7,0.1-13.4,0.2-20.1,0.4c-1.6,0-2.4-0.4-3-1.6c-4.3-7.9-8.7-15.9-13.1-23.8
		C77.7,36.8,77.7,36.7,77.8,36.5z"/>
</g>
<g>
	<path fill="#FFFFFF" d="M7.6,68.9h7.5v48.7l51.8-48.7h10.1l-56.2,52.9l59.9,60.1h-9.9l-55.6-55.8v55.8H7.6V68.9z"/>
	<path fill="#FFFFFF" d="M94.2,181.9v-80.6h7.6v80.6H94.2z"/>
	<path fill="#FFFFFF" d="M122.6,181.9v-80.6h7.6v74.1h43.2v6.5H122.6z"/>
	<path fill="#FFFFFF" d="M192.4,145.3v36.6h-7.6v-80.6h31.6c8.9,0,15.7,1.7,20.4,5c4.7,3.3,7.1,8.7,7.1,16.2c0,5.1-1,9.1-3.1,12.1
		c-2.1,3-5.4,5.5-10,7.6c2.4,0.8,4.3,2,5.6,3.6c1.3,1.6,2.4,3.4,3,5.4c0.7,2,1.1,4.1,1.3,6.4c0.2,2.2,0.3,4.4,0.4,6.5
		c0.1,3.1,0.2,5.6,0.4,7.6c0.2,2,0.4,3.7,0.7,4.9c0.3,1.3,0.6,2.3,1,3c0.4,0.7,0.8,1.3,1.3,1.6v0.8H236c-0.8-1.3-1.4-3.2-1.7-5.6
		c-0.3-2.4-0.6-4.9-0.8-7.5c-0.2-2.6-0.3-5.2-0.4-7.6c-0.1-2.5-0.3-4.5-0.6-6c-0.4-2.2-1.2-3.9-2.2-5.2c-1-1.3-2.2-2.3-3.6-3
		c-1.4-0.7-3-1.1-4.8-1.3c-1.8-0.2-3.6-0.3-5.4-0.3H192.4z M216.2,138.8c2.8,0,5.5-0.3,7.9-0.9c2.4-0.6,4.5-1.5,6.3-2.9
		c1.8-1.3,3.2-3,4.3-5c1-2,1.6-4.4,1.6-7.3c0-3-0.5-5.4-1.6-7.4c-1.1-1.9-2.5-3.5-4.4-4.6c-1.8-1.1-3.9-1.9-6.3-2.4
		c-2.4-0.4-4.8-0.7-7.3-0.7h-24.2v31H216.2z"/>
	<path fill="#FFFFFF" d="M256.5,141.7c0-5.9,0.8-11.4,2.4-16.6c1.6-5.2,4-9.6,7.1-13.5c3.1-3.8,7-6.9,11.6-9.1
		c4.6-2.2,10-3.4,16-3.4c6.3,0,11.8,1.1,16.5,3.3c4.7,2.2,8.7,5.2,11.9,9.1c3.2,3.8,5.6,8.4,7.2,13.6c1.6,5.2,2.4,10.7,2.4,16.6
		c0,5.8-0.8,11.3-2.4,16.4c-1.6,5.1-4,9.6-7.1,13.4c-3.1,3.8-7.1,6.9-11.8,9.1S300.2,184,294,184c-6.2,0-11.6-1.1-16.4-3.4
		c-4.7-2.2-8.6-5.3-11.8-9.1c-3.1-3.8-5.5-8.3-7.1-13.4C257.3,153,256.5,147.5,256.5,141.7z M294.1,177.5c5.2,0,9.7-1,13.5-3
		c3.8-2,6.9-4.6,9.3-7.9c2.4-3.3,4.2-7.1,5.4-11.4c1.2-4.3,1.7-8.8,1.7-13.6c0-5.6-0.7-10.6-2.1-15.1c-1.4-4.4-3.4-8.2-6-11.4
		c-2.6-3.1-5.8-5.5-9.5-7.2c-3.7-1.6-7.9-2.5-12.5-2.5c-5.2,0-9.6,1-13.4,3c-3.8,2-6.9,4.7-9.3,8c-2.4,3.3-4.2,7.2-5.4,11.5
		c-1.2,4.3-1.7,8.8-1.7,13.6c0,4.8,0.6,9.3,1.7,13.7c1.2,4.3,2.9,8.1,5.4,11.4c2.4,3.3,5.5,5.9,9.3,7.8
		C284.3,176.6,288.8,177.5,294.1,177.5z"/>
	<path fill="#FFFFFF" d="M371.5,140.1l24.3-38.9h8.8l-29.2,45.5v35.2h-7.6v-34.6l-28.8-46h8.7L371.5,140.1z"/>
</g>
<g>
</g>
<g>
</g>
<g>
</g>
<g>
</g>
<g>
</g>
<g>
</g>
<g>
</g>
</svg>
